<?xml version="1.0" encoding="UTF-8"?>
<!DOCTYPE svg PUBLIC "-//W3C//DTD SVG 1.0//EN" "http://www.w3.org/TR/2001/REC-SVG-20010904/DTD/svg10.dtd">
<svg xmlns="http://www.w3.org/2000/svg" xml:space="preserve" width="139.553mm" height="139.553mm" version="1.0" style="shape-rendering:geometricPrecision; text-rendering:geometricPrecision; image-rendering:optimizeQuality; fill-rule:evenodd; clip-rule:evenodd" viewBox="0 0 653 653" xmlns:xlink="http://www.w3.org/1999/xlink">
	<defs>
		<style type="text/css">
			<![CDATA[
				.str1 {stroke:#fefefe;stroke-width:14.0316}
				.str0 {stroke:#fefefe;stroke-width:32.7404}
				.fil1 {fill:none}
				.fil2 {fill:#fefefe}
				.fil0 {fill:#3dad00;fill-opacity:0.588235}
			]]>
		</style>
	</defs>
	<g id="Layer_x0020_1">
		<metadata id="CorelCorpID_0Corel-Layer" />
		<path class="fil0" d="M326 7c-176,0 -319,143 -319,319 0,177 143,320 319,320 177,0 320,-143 320,-320 0,-176 -143,-319 -320,-319l0 0z" />
		<path class="fil1 str0" d="M328 148c98,0 177,79 177,176 0,1 0,2 0,3m-179 -179c1,0 2,0 2,0m0 70c59,0 106,48 106,106 0,1 0,2 0,3m-108 -109c1,0 2,0 2,0" />
		<path class="fil2" d="M482 453l-2 -5c-4,-13 -18,-26 -30,-30l-48 -12c-12,-4 -31,1 -40,10l-17 17c-62,-17 -111,-65 -128,-127l17 -17c10,-10 14,-28 11,-41l-13 -47c-3,-13 -17,-27 -29,-31l-5 -2c-13,-4 -31,0 -40,10l-26 25c-4,5 -7,18 -7,18 -1,81 31,159 88,217 57,57 135,89 216,88 0,0 14,-3 18,-8l26 -25c9,-9 13,-27 9,-40z" />
		<circle class="fil1 str1" cx="326" cy="326" r="319" />
	</g>
</svg>